<svg width="200" height="200" viewBox="0 0 200 200" xmlns="http://www.w3.org/2000/svg">
    <defs>
        <linearGradient id="logo-gradient" x1="0%" y1="0%" x2="100%" y2="100%">
            <stop offset="0%" stop-color="#3498db" />
            <stop offset="100%" stop-color="#2ecc71" />
        </linearGradient>
    </defs>
    <circle cx="100" cy="100" r="90" fill="white" />
    <path d="M50,100 C50,70 70,50 100,50 C130,50 150,70 150,100 C150,130 130,150 100,150 C70,150 50,130 50,100 Z" fill="none" stroke="url(#logo-gradient)" stroke-width="10" />
    <path d="M70,80 C70,70 80,60 100,60 C120,60 130,70 130,80 C130,90 120,100 100,100" fill="none" stroke="url(#logo-gradient)" stroke-width="8" stroke-linecap="round" />
    <path d="M70,120 C70,130 80,140 100,140 C120,140 130,130 130,120 C130,110 120,100 100,100" fill="none" stroke="url(#logo-gradient)" stroke-width="8" stroke-linecap="round" />
    <circle cx="100" cy="100" r="10" fill="url(#logo-gradient)" />
</svg>
